solid 
   facet normal -1.224647e-16 -1.000000e+00 0.000000e+00
      outer loop
         vertex -4.300000e+01 5.265981e-15 4.300000e+01
         vertex -4.300000e+01 5.265981e-15 0.000000e+00
         vertex 0.000000e+00 0.000000e+00 0.000000e+00
      endloop
   endfacet
   facet normal -1.224647e-16 -1.000000e+00 -0.000000e+00
      outer loop
         vertex 0.000000e+00 0.000000e+00 0.000000e+00
         vertex 0.000000e+00 0.000000e+00 4.300000e+01
         vertex -4.300000e+01 5.265981e-15 4.300000e+01
      endloop
   endfacet
   facet normal 1.000000e+00 -1.224647e-16 0.000000e+00
      outer loop
         vertex 0.000000e+00 0.000000e+00 4.300000e+01
         vertex 0.000000e+00 0.000000e+00 0.000000e+00
         vertex 5.265981e-15 4.300000e+01 0.000000e+00
      endloop
   endfacet
   facet normal 1.000000e+00 -1.224647e-16 0.000000e+00
      outer loop
         vertex 5.265981e-15 4.300000e+01 0.000000e+00
         vertex 5.265981e-15 4.300000e+01 4.300000e+01
         vertex 0.000000e+00 0.000000e+00 4.300000e+01
      endloop
   endfacet
   facet normal 0.000000e+00 1.000000e+00 -0.000000e+00
      outer loop
         vertex 5.265981e-15 4.300000e+01 4.300000e+01
         vertex 5.265981e-15 4.300000e+01 0.000000e+00
         vertex -4.300000e+01 4.300000e+01 0.000000e+00
      endloop
   endfacet
   facet normal -0.000000e+00 1.000000e+00 0.000000e+00
      outer loop
         vertex -4.300000e+01 4.300000e+01 0.000000e+00
         vertex -4.300000e+01 4.300000e+01 4.300000e+01
         vertex 5.265981e-15 4.300000e+01 4.300000e+01
      endloop
   endfacet
   facet normal -1.000000e+00 0.000000e+00 0.000000e+00
      outer loop
         vertex -4.300000e+01 4.300000e+01 4.300000e+01
         vertex -4.300000e+01 4.300000e+01 0.000000e+00
         vertex -4.300000e+01 5.265981e-15 0.000000e+00
      endloop
   endfacet
   facet normal -1.000000e+00 0.000000e+00 0.000000e+00
      outer loop
         vertex -4.300000e+01 5.265981e-15 0.000000e+00
         vertex -4.300000e+01 5.265981e-15 4.300000e+01
         vertex -4.300000e+01 4.300000e+01 4.300000e+01
      endloop
   endfacet
   facet normal -0.000000e+00 0.000000e+00 1.000000e+00
      outer loop
         vertex -4.300000e+01 4.300000e+01 4.300000e+01
         vertex -4.300000e+01 5.265981e-15 4.300000e+01
         vertex 0.000000e+00 0.000000e+00 4.300000e+01
      endloop
   endfacet
   facet normal 0.000000e+00 0.000000e+00 1.000000e+00
      outer loop
         vertex 0.000000e+00 0.000000e+00 4.300000e+01
         vertex 5.265981e-15 4.300000e+01 4.300000e+01
         vertex -4.300000e+01 4.300000e+01 4.300000e+01
      endloop
   endfacet
   facet normal 0.000000e+00 0.000000e+00 -1.000000e+00
      outer loop
         vertex 5.265981e-15 4.300000e+01 0.000000e+00
         vertex 0.000000e+00 0.000000e+00 0.000000e+00
         vertex -4.300000e+01 5.265981e-15 0.000000e+00
      endloop
   endfacet
   facet normal 0.000000e+00 0.000000e+00 -1.000000e+00
      outer loop
         vertex -4.300000e+01 5.265981e-15 0.000000e+00
         vertex -4.300000e+01 4.300000e+01 0.000000e+00
         vertex 5.265981e-15 4.300000e+01 0.000000e+00
      endloop
   endfacet
   facet normal 0.000000e+00 1.000000e+00 -0.000000e+00
      outer loop
         vertex 3.000652e+02 9.800000e+01 9.800000e+01
         vertex 3.000652e+02 9.800000e+01 -9.800000e+01
         vertex 2.658115e+02 9.800000e+01 -4.778428e+01
      endloop
   endfacet
   facet normal 0.000000e+00 1.000000e+00 0.000000e+00
      outer loop
         vertex 3.000652e+02 9.800000e+01 -9.800000e+01
         vertex 1.250652e+02 9.800000e+01 -9.800000e+01
         vertex 1.718115e+02 9.800000e+01 -4.778428e+01
      endloop
   endfacet
   facet normal 0.000000e+00 1.000000e+00 0.000000e+00
      outer loop
         vertex 1.250652e+02 9.800000e+01 -9.800000e+01
         vertex 1.250652e+02 9.800000e+01 9.800000e+01
         vertex 1.718115e+02 9.800000e+01 -4.778428e+01
      endloop
   endfacet
   facet normal 0.000000e+00 1.000000e+00 0.000000e+00
      outer loop
         vertex 1.250652e+02 9.800000e+01 9.800000e+01
         vertex 3.000652e+02 9.800000e+01 9.800000e+01
         vertex 1.718115e+02 9.800000e+01 5.221572e+01
      endloop
   endfacet
   facet normal -0.000000e+00 1.000000e+00 0.000000e+00
      outer loop
         vertex 2.658115e+02 9.800000e+01 -4.778428e+01
         vertex 2.658115e+02 9.800000e+01 5.221572e+01
         vertex 3.000652e+02 9.800000e+01 9.800000e+01
      endloop
   endfacet
   facet normal 0.000000e+00 1.000000e+00 0.000000e+00
      outer loop
         vertex 2.658115e+02 9.800000e+01 5.221572e+01
         vertex 1.718115e+02 9.800000e+01 5.221572e+01
         vertex 3.000652e+02 9.800000e+01 9.800000e+01
      endloop
   endfacet
   facet normal 0.000000e+00 1.000000e+00 -0.000000e+00
      outer loop
         vertex 1.718115e+02 9.800000e+01 5.221572e+01
         vertex 1.718115e+02 9.800000e+01 -4.778428e+01
         vertex 1.250652e+02 9.800000e+01 9.800000e+01
      endloop
   endfacet
   facet normal 0.000000e+00 1.000000e+00 0.000000e+00
      outer loop
         vertex 1.718115e+02 9.800000e+01 -4.778428e+01
         vertex 2.658115e+02 9.800000e+01 -4.778428e+01
         vertex 3.000652e+02 9.800000e+01 -9.800000e+01
      endloop
   endfacet
   facet normal -2.803569e-16 -1.000000e+00 0.000000e+00
      outer loop
         vertex 1.250652e+02 -1.531607e-14 9.800000e+01
         vertex 1.250652e+02 -1.531607e-14 -9.800000e+01
         vertex 1.718115e+02 -2.842171e-14 -4.778428e+01
      endloop
   endfacet
   facet normal -1.224647e-16 -1.000000e+00 -1.469832e-16
      outer loop
         vertex 1.250652e+02 -1.531607e-14 -9.800000e+01
         vertex 3.000652e+02 -3.674739e-14 -9.800000e+01
         vertex 1.718115e+02 -2.842171e-14 -4.778428e+01
      endloop
   endfacet
   facet normal -2.430592e-16 -1.000000e+00 -0.000000e+00
      outer loop
         vertex 3.000652e+02 -3.674739e-14 -9.800000e+01
         vertex 3.000652e+02 -3.674739e-14 9.800000e+01
         vertex 2.658115e+02 -2.842171e-14 -4.778428e+01
      endloop
   endfacet
   facet normal -1.224647e-16 -1.000000e+00 1.612097e-16
      outer loop
         vertex 3.000652e+02 -3.674739e-14 9.800000e+01
         vertex 1.250652e+02 -1.531607e-14 9.800000e+01
         vertex 1.718115e+02 -2.842171e-14 5.221572e+01
      endloop
   endfacet
   facet normal -2.803569e-16 -1.000000e+00 -0.000000e+00
      outer loop
         vertex 1.718115e+02 -2.842171e-14 -4.778428e+01
         vertex 1.718115e+02 -2.842171e-14 5.221572e+01
         vertex 1.250652e+02 -1.531607e-14 9.800000e+01
      endloop
   endfacet
   facet normal -0.000000e+00 -1.000000e+00 -1.818459e-16
      outer loop
         vertex 1.718115e+02 -2.842171e-14 5.221572e+01
         vertex 2.658115e+02 -2.842171e-14 5.221572e+01
         vertex 3.000652e+02 -3.674739e-14 9.800000e+01
      endloop
   endfacet
   facet normal -2.430592e-16 -1.000000e+00 0.000000e+00
      outer loop
         vertex 2.658115e+02 -2.842171e-14 5.221572e+01
         vertex 2.658115e+02 -2.842171e-14 -4.778428e+01
         vertex 3.000652e+02 -3.674739e-14 9.800000e+01
      endloop
   endfacet
   facet normal 0.000000e+00 -1.000000e+00 1.657983e-16
      outer loop
         vertex 2.658115e+02 -2.842171e-14 -4.778428e+01
         vertex 1.718115e+02 -2.842171e-14 -4.778428e+01
         vertex 3.000652e+02 -3.674739e-14 -9.800000e+01
      endloop
   endfacet
   facet normal -1.000000e+00 0.000000e+00 0.000000e+00
      outer loop
         vertex 2.658115e+02 9.800000e+01 5.221572e+01
         vertex 2.658115e+02 9.800000e+01 -4.778428e+01
         vertex 2.658115e+02 -2.842171e-14 -4.778428e+01
      endloop
   endfacet
   facet normal -1.000000e+00 0.000000e+00 0.000000e+00
      outer loop
         vertex 2.658115e+02 -2.842171e-14 -4.778428e+01
         vertex 2.658115e+02 -2.842171e-14 5.221572e+01
         vertex 2.658115e+02 9.800000e+01 5.221572e+01
      endloop
   endfacet
   facet normal -0.000000e+00 0.000000e+00 1.000000e+00
      outer loop
         vertex 2.658115e+02 9.800000e+01 -4.778428e+01
         vertex 1.718115e+02 9.800000e+01 -4.778428e+01
         vertex 1.718115e+02 -2.842171e-14 -4.778428e+01
      endloop
   endfacet
   facet normal 0.000000e+00 -0.000000e+00 1.000000e+00
      outer loop
         vertex 1.718115e+02 -2.842171e-14 -4.778428e+01
         vertex 2.658115e+02 -2.842171e-14 -4.778428e+01
         vertex 2.658115e+02 9.800000e+01 -4.778428e+01
      endloop
   endfacet
   facet normal 1.000000e+00 0.000000e+00 0.000000e+00
      outer loop
         vertex 1.718115e+02 9.800000e+01 -4.778428e+01
         vertex 1.718115e+02 9.800000e+01 5.221572e+01
         vertex 1.718115e+02 -2.842171e-14 5.221572e+01
      endloop
   endfacet
   facet normal 1.000000e+00 0.000000e+00 0.000000e+00
      outer loop
         vertex 1.718115e+02 -2.842171e-14 5.221572e+01
         vertex 1.718115e+02 -2.842171e-14 -4.778428e+01
         vertex 1.718115e+02 9.800000e+01 -4.778428e+01
      endloop
   endfacet
   facet normal -0.000000e+00 -0.000000e+00 -1.000000e+00
      outer loop
         vertex 1.718115e+02 9.800000e+01 5.221572e+01
         vertex 2.658115e+02 9.800000e+01 5.221572e+01
         vertex 2.658115e+02 -2.842171e-14 5.221572e+01
      endloop
   endfacet
   facet normal 0.000000e+00 0.000000e+00 -1.000000e+00
      outer loop
         vertex 2.658115e+02 -2.842171e-14 5.221572e+01
         vertex 1.718115e+02 -2.842171e-14 5.221572e+01
         vertex 1.718115e+02 9.800000e+01 5.221572e+01
      endloop
   endfacet
   facet normal 0.000000e+00 0.000000e+00 -1.000000e+00
      outer loop
         vertex 3.000652e+02 9.800000e+01 -9.800000e+01
         vertex 3.000652e+02 -3.674739e-14 -9.800000e+01
         vertex 1.250652e+02 -1.531607e-14 -9.800000e+01
      endloop
   endfacet
   facet normal 0.000000e+00 0.000000e+00 -1.000000e+00
      outer loop
         vertex 1.250652e+02 -1.531607e-14 -9.800000e+01
         vertex 1.250652e+02 9.800000e+01 -9.800000e+01
         vertex 3.000652e+02 9.800000e+01 -9.800000e+01
      endloop
   endfacet
   facet normal -1.000000e+00 0.000000e+00 0.000000e+00
      outer loop
         vertex 1.250652e+02 9.800000e+01 9.800000e+01
         vertex 1.250652e+02 9.800000e+01 -9.800000e+01
         vertex 1.250652e+02 -1.531607e-14 -9.800000e+01
      endloop
   endfacet
   facet normal -1.000000e+00 0.000000e+00 0.000000e+00
      outer loop
         vertex 1.250652e+02 -1.531607e-14 -9.800000e+01
         vertex 1.250652e+02 -1.531607e-14 9.800000e+01
         vertex 1.250652e+02 9.800000e+01 9.800000e+01
      endloop
   endfacet
   facet normal -0.000000e+00 0.000000e+00 1.000000e+00
      outer loop
         vertex 1.250652e+02 9.800000e+01 9.800000e+01
         vertex 1.250652e+02 -1.531607e-14 9.800000e+01
         vertex 3.000652e+02 -3.674739e-14 9.800000e+01
      endloop
   endfacet
   facet normal 0.000000e+00 0.000000e+00 1.000000e+00
      outer loop
         vertex 3.000652e+02 -3.674739e-14 9.800000e+01
         vertex 3.000652e+02 9.800000e+01 9.800000e+01
         vertex 1.250652e+02 9.800000e+01 9.800000e+01
      endloop
   endfacet
   facet normal 1.000000e+00 0.000000e+00 0.000000e+00
      outer loop
         vertex 3.000652e+02 -3.674739e-14 9.800000e+01
         vertex 3.000652e+02 -3.674739e-14 -9.800000e+01
         vertex 3.000652e+02 9.800000e+01 -9.800000e+01
      endloop
   endfacet
   facet normal 1.000000e+00 0.000000e+00 0.000000e+00
      outer loop
         vertex 3.000652e+02 9.800000e+01 -9.800000e+01
         vertex 3.000652e+02 9.800000e+01 9.800000e+01
         vertex 3.000652e+02 -3.674739e-14 9.800000e+01
      endloop
   endfacet
   facet normal -1.000000e+00 0.000000e+00 0.000000e+00
      outer loop
         vertex 8.194633e+01 4.523332e+02 7.750000e+01
         vertex 8.194633e+01 4.523332e+02 -7.750000e+01
         vertex 8.194633e+01 2.063332e+02 -7.750000e+01
      endloop
   endfacet
   facet normal -1.000000e+00 0.000000e+00 0.000000e+00
      outer loop
         vertex 8.194633e+01 2.063332e+02 -7.750000e+01
         vertex 8.194633e+01 2.063332e+02 7.750000e+01
         vertex 8.194633e+01 4.523332e+02 7.750000e+01
      endloop
   endfacet
   facet normal 0.000000e+00 -1.000000e+00 0.000000e+00
      outer loop
         vertex 8.194633e+01 2.063332e+02 7.750000e+01
         vertex 8.194633e+01 2.063332e+02 -7.750000e+01
         vertex 3.819463e+02 2.063332e+02 -7.750000e+01
      endloop
   endfacet
   facet normal -0.000000e+00 -1.000000e+00 -0.000000e+00
      outer loop
         vertex 3.819463e+02 2.063332e+02 -7.750000e+01
         vertex 3.819463e+02 2.063332e+02 7.750000e+01
         vertex 8.194633e+01 2.063332e+02 7.750000e+01
      endloop
   endfacet
   facet normal 1.000000e+00 0.000000e+00 0.000000e+00
      outer loop
         vertex 3.819463e+02 2.063332e+02 7.750000e+01
         vertex 3.819463e+02 2.063332e+02 -7.750000e+01
         vertex 3.819463e+02 4.523332e+02 -7.750000e+01
      endloop
   endfacet
   facet normal 1.000000e+00 0.000000e+00 0.000000e+00
      outer loop
         vertex 3.819463e+02 4.523332e+02 -7.750000e+01
         vertex 3.819463e+02 4.523332e+02 7.750000e+01
         vertex 3.819463e+02 2.063332e+02 7.750000e+01
      endloop
   endfacet
   facet normal 0.000000e+00 1.000000e+00 -0.000000e+00
      outer loop
         vertex 3.819463e+02 4.523332e+02 7.750000e+01
         vertex 3.819463e+02 4.523332e+02 -7.750000e+01
         vertex 8.194633e+01 4.523332e+02 -7.750000e+01
      endloop
   endfacet
   facet normal -0.000000e+00 1.000000e+00 0.000000e+00
      outer loop
         vertex 8.194633e+01 4.523332e+02 -7.750000e+01
         vertex 8.194633e+01 4.523332e+02 7.750000e+01
         vertex 3.819463e+02 4.523332e+02 7.750000e+01
      endloop
   endfacet
   facet normal -0.000000e+00 0.000000e+00 1.000000e+00
      outer loop
         vertex 3.819463e+02 4.523332e+02 7.750000e+01
         vertex 8.194633e+01 4.523332e+02 7.750000e+01
         vertex 8.194633e+01 2.063332e+02 7.750000e+01
      endloop
   endfacet
   facet normal 0.000000e+00 -0.000000e+00 1.000000e+00
      outer loop
         vertex 8.194633e+01 2.063332e+02 7.750000e+01
         vertex 3.819463e+02 2.063332e+02 7.750000e+01
         vertex 3.819463e+02 4.523332e+02 7.750000e+01
      endloop
   endfacet
   facet normal 0.000000e+00 0.000000e+00 -1.000000e+00
      outer loop
         vertex 3.819463e+02 2.063332e+02 -7.750000e+01
         vertex 8.194633e+01 2.063332e+02 -7.750000e+01
         vertex 8.194633e+01 4.523332e+02 -7.750000e+01
      endloop
   endfacet
   facet normal -0.000000e+00 -0.000000e+00 -1.000000e+00
      outer loop
         vertex 8.194633e+01 4.523332e+02 -7.750000e+01
         vertex 3.819463e+02 4.523332e+02 -7.750000e+01
         vertex 3.819463e+02 2.063332e+02 -7.750000e+01
      endloop
   endfacet
endsolid
